<svg width="1348" height="310" viewBox="0 0 1348 310" fill="none" xmlns="http://www.w3.org/2000/svg">
<g clip-path="url(#clip0_18378_4)">
<path d="M755.182 59.0458H793.834V306.4H755.182V59.0458ZM511.408 273.502C483.903 273.502 462.501 257.014 454.564 233.16L603.618 194.355C597.248 134.451 553.526 103.231 508.529 103.231C494.99 103.176 481.601 106.075 469.284 111.729C456.967 117.382 446.016 125.654 437.187 135.976C421.339 154.577 412.765 179.2 412.765 206.257C412.765 269.953 457.354 309.308 512.134 309.308C548.863 309.308 577.362 292.654 592.636 270.683L565.31 247.7C554.175 264.175 532.352 273.502 511.408 273.502ZM508.313 139.217C532.722 139.217 550.175 152.361 559.004 171.949L451.201 199.992C451.838 165.697 474.119 139.217 508.313 139.217V139.217ZM309.001 103.256C257.469 103.256 224.919 136.334 224.919 186.169V306.4H263.584V186.169C263.584 156.332 278.081 140.126 308.975 140.126C339.869 140.126 354.163 156.294 354.163 186.169V306.4H392.828V186.169C392.84 136.334 360.532 103.256 309.001 103.256ZM102.809 309.359C82.5394 309.362 62.7242 303.32 45.8689 291.999C29.0135 280.677 15.875 264.584 8.1147 245.754C0.354355 226.924 -1.67935 206.203 2.27074 186.21C6.22082 166.218 15.9773 147.852 30.3065 133.436C44.6358 119.019 62.8943 109.199 82.7733 105.217C102.652 101.235 123.259 103.269 141.988 111.064C160.717 118.858 176.728 132.062 187.995 149.006C199.262 165.95 205.279 185.874 205.287 206.257C205.27 233.587 194.47 259.794 175.256 279.125C156.043 298.455 129.987 309.329 102.809 309.359V309.359ZM102.809 140.255C67.6986 140.255 39.1108 169.899 39.1108 206.346C39.1108 242.794 67.6731 272.425 102.809 272.425C137.945 272.425 166.507 242.781 166.507 206.346C166.507 169.912 137.945 140.255 102.809 140.255V140.255ZM915.982 309.359C895.712 309.362 875.897 303.32 859.042 291.999C842.186 280.677 829.048 264.584 821.287 245.754C813.527 226.924 811.493 206.203 815.443 186.21C819.393 166.218 829.15 147.852 843.479 133.436C857.808 119.019 876.067 109.199 895.946 105.217C915.825 101.235 936.432 103.269 955.161 111.064C973.89 118.858 989.9 132.062 1001.17 149.006C1012.43 165.95 1018.45 185.874 1018.46 206.257C1018.44 233.586 1007.64 259.791 988.425 279.121C969.213 298.45 943.159 309.326 915.982 309.359ZM915.982 140.255C880.871 140.255 852.283 169.899 852.283 206.346C852.283 242.794 880.858 272.425 915.982 272.425C951.105 272.425 979.68 242.781 979.68 206.346C979.68 169.912 951.118 140.255 915.982 140.255ZM662.845 147.121V136.77C662.845 119.514 663.482 111.801 670.667 103.256C677.852 94.7115 690.49 90.8683 707.051 90.8683C715.179 90.7113 723.298 91.4719 731.257 93.1358V58.149C721.567 56.1496 711.694 55.1834 701.803 55.2666C676.884 55.2666 659.188 61.3646 646.614 71.7287C629.607 85.7439 624.333 104.012 624.333 133.785V306.4H662.985V181.147L716.338 167.145V133.106L662.845 147.121ZM1294.41 183.261V226.511C1294.41 256.335 1279.98 272.541 1249.52 272.554C1234.33 272.554 1222.97 268.159 1215.73 260.46C1207.15 251.339 1204.97 242.025 1204.92 226.78V106.331H1166.27V226.575C1166.27 243.614 1162.72 253.311 1155.25 260.78C1147.77 268.249 1136.61 272.605 1121.38 272.618C1091.28 272.618 1076.79 256.309 1076.79 226.575V106.331H1038.12V231.072C1038.12 254.042 1044.49 272.451 1058.96 286.735C1075.52 303.005 1097.39 309.488 1121.66 309.488C1148.42 309.488 1171.18 299.405 1185.59 282.93C1199.94 299.341 1222.65 309.488 1249.81 309.488C1275.29 309.488 1297.23 301.801 1311.62 287.35C1326.29 272.643 1333.07 256.117 1333.07 228.958V183.261H1294.41ZM1294.4 28.4916H1333.07V67.3729H1294.4V28.4916ZM1294.4 106.241H1333.07V145.11H1294.4V106.241ZM1255.75 67.3729H1294.41V106.241H1255.75V67.3729ZM1333.07 67.3729H1371.73V106.241H1333.07V67.3729ZM1361.33 0H1400V38.8813H1361.33V0Z" fill="black"/>
</g>
<defs>
<clipPath id="clip0_18378_4">
<rect width="1400" height="310" fill="white"/>
</clipPath>
</defs>
</svg>
